<svg xmlns="http://www.w3.org/2000/svg" xmlns:xlink="http://www.w3.org/1999/xlink" width="1920" zoomAndPan="magnify" viewBox="0 0 1440 809.999993" height="1080" preserveAspectRatio="xMidYMid meet" version="1.0"><defs><clipPath id="4dd6ec53e5"><path d="M 624.265625 503.421875 L 837.265625 503.421875 L 837.265625 561.921875 L 624.265625 561.921875 Z M 624.265625 503.421875 " clip-rule="nonzero"/></clipPath><clipPath id="274d15fd85"><path d="M 624.265625 503.421875 L 837.265625 503.421875 L 837.265625 561.921875 L 624.265625 561.921875 Z M 624.265625 503.421875 " clip-rule="nonzero"/></clipPath></defs><g clip-path="url(#4dd6ec53e5)"><path fill="#c0c0c0" d="M 624.289062 503.421875 L 837.246094 503.421875 L 837.246094 561.921875 L 624.289062 561.921875 Z M 624.289062 503.421875 " fill-opacity="1" fill-rule="nonzero"/></g><path fill="#ffffff" d="M 828.113281 507.960938 L 628.785156 507.960938 L 628.785156 557.453125 L 633.351562 557.453125 L 633.351562 512.425781 L 828.113281 512.425781 Z M 828.113281 507.960938 " fill-opacity="1" fill-rule="nonzero"/><path fill="#000000" d="M 633.351562 557.453125 L 832.679688 557.453125 L 832.679688 507.960938 L 828.113281 507.960938 L 828.113281 552.988281 L 633.351562 552.988281 Z M 633.351562 557.453125 " fill-opacity="0.3" fill-rule="nonzero"/><g clip-path="url(#274d15fd85)"><path fill="#000000" d="M 832.679688 503.421875 L 624.289062 503.421875 L 624.289062 561.921875 L 837.101562 561.921875 L 837.101562 503.421875 Z M 832.679688 557.453125 L 628.855469 557.453125 L 628.855469 507.886719 L 832.679688 507.886719 Z M 717.214844 525.464844 L 710.980469 525.464844 L 710.980469 523.375 L 717.214844 523.375 Z M 717.214844 527.484375 L 717.214844 525.394531 L 719.316406 525.394531 L 719.316406 527.484375 Z M 710.90625 525.464844 L 710.90625 531.660156 L 708.804688 531.660156 L 708.804688 525.464844 Z M 710.90625 537.859375 L 710.90625 539.945312 L 708.804688 539.945312 L 708.804688 537.859375 Z M 717.214844 531.660156 L 717.214844 533.75 L 710.980469 533.75 L 710.980469 531.660156 Z M 719.242188 539.945312 L 717.140625 539.945312 L 717.140625 533.75 L 719.242188 533.75 Z M 710.90625 542.035156 L 710.90625 539.945312 L 717.140625 539.945312 L 717.140625 542.035156 Z M 723.953125 539.945312 L 721.851562 539.945312 L 721.851562 525.464844 L 723.953125 525.464844 L 723.953125 529.644531 L 726.054688 529.644531 L 726.054688 531.734375 L 723.953125 531.734375 Z M 723.953125 542.035156 L 723.953125 539.945312 L 726.054688 539.945312 L 726.054688 542.035156 Z M 737 535.769531 L 730.765625 535.769531 L 730.765625 533.679688 L 737 533.679688 L 737 531.589844 L 739.101562 531.589844 L 739.101562 541.964844 L 730.765625 541.964844 L 730.765625 539.875 L 737 539.875 Z M 737 529.574219 L 737 531.660156 L 730.765625 531.660156 L 730.765625 529.574219 Z M 730.765625 539.945312 L 728.664062 539.945312 L 728.664062 535.769531 L 730.765625 535.769531 Z M 743.8125 542.035156 L 741.710938 542.035156 L 741.710938 529.574219 L 745.917969 529.574219 L 745.917969 531.660156 L 743.8125 531.660156 Z M 750.554688 539.945312 L 748.453125 539.945312 L 748.453125 525.464844 L 750.554688 525.464844 L 750.554688 529.644531 L 752.65625 529.644531 L 752.65625 531.734375 L 750.554688 531.734375 Z M 750.554688 542.035156 L 750.554688 539.945312 L 752.65625 539.945312 L 752.65625 542.035156 Z M 750.554688 542.035156 " fill-opacity="1" fill-rule="nonzero"/></g></svg>