<svg xmlns="http://www.w3.org/2000/svg" xmlns:xlink="http://www.w3.org/1999/xlink" width="1920" zoomAndPan="magnify" viewBox="0 0 1440 809.999993" height="1080" preserveAspectRatio="xMidYMid meet" version="1.0"><defs><g/></defs><g fill="#ff3131" fill-opacity="1"><g transform="translate(539.12468, 336.04969)"><g><path d="M 15.953125 0 L 15.953125 -10.640625 L 47.875 -10.640625 L 47.875 -21.28125 L 26.59375 -21.28125 L 26.59375 -31.921875 L 58.515625 -31.921875 L 58.515625 0 Z M 5.3125 -10.640625 L 5.3125 -42.5625 L 15.953125 -42.5625 L 15.953125 -10.640625 Z M 15.953125 -42.5625 L 15.953125 -53.203125 L 58.515625 -53.203125 L 58.515625 -42.5625 Z M 15.953125 -42.5625 "/></g></g></g><g fill="#ff3131" fill-opacity="1"><g transform="translate(602.961401, 336.04969)"><g><path d="M 47.875 -10.640625 L 47.875 0 L 15.953125 0 L 15.953125 -10.640625 Z M 5.3125 -10.640625 L 5.3125 -42.5625 L 15.953125 -42.5625 L 15.953125 -10.640625 Z M 15.953125 -42.5625 L 15.953125 -53.203125 L 47.875 -53.203125 L 47.875 -42.5625 Z M 47.875 -10.640625 L 47.875 -42.5625 L 58.515625 -42.5625 L 58.515625 -10.640625 Z M 47.875 -10.640625 "/></g></g></g><g fill="#ff3131" fill-opacity="1"><g transform="translate(666.798121, 336.04969)"><g><path d="M 26.59375 0 L 26.59375 -42.5625 L 5.3125 -42.5625 L 5.3125 -53.203125 L 58.515625 -53.203125 L 58.515625 -42.5625 L 37.234375 -42.5625 L 37.234375 0 Z M 26.59375 0 "/></g></g></g><g fill="#ff3131" fill-opacity="1"><g transform="translate(730.634841, 336.04969)"><g><path d="M 5.3125 0 L 5.3125 -53.203125 L 15.953125 -53.203125 L 15.953125 -31.921875 L 47.875 -31.921875 L 47.875 -53.203125 L 58.515625 -53.203125 L 58.515625 0 L 47.875 0 L 47.875 -21.28125 L 15.953125 -21.28125 L 15.953125 0 Z M 5.3125 0 "/></g></g></g><g fill="#ff3131" fill-opacity="1"><g transform="translate(794.471561, 336.04969)"><g><path d="M 5.3125 0 L 5.3125 -10.640625 L 15.953125 -10.640625 L 15.953125 -42.5625 L 5.3125 -42.5625 L 5.3125 -53.203125 L 37.234375 -53.203125 L 37.234375 -42.5625 L 26.59375 -42.5625 L 26.59375 -10.640625 L 37.234375 -10.640625 L 37.234375 0 Z M 5.3125 0 "/></g></g></g><g fill="#ff3131" fill-opacity="1"><g transform="translate(837.029389, 336.04969)"><g><path d="M 15.953125 -42.5625 L 15.953125 -10.640625 L 5.3125 -10.640625 L 5.3125 -42.5625 Z M 15.953125 0 L 15.953125 -10.640625 L 58.515625 -10.640625 L 58.515625 0 Z M 15.953125 -42.5625 L 15.953125 -53.203125 L 58.515625 -53.203125 L 58.515625 -42.5625 Z M 15.953125 -42.5625 "/></g></g></g><g fill="#ff0000" fill-opacity="1"><g transform="translate(432.730151, 408.799687)"><g><path d="M 15.953125 -42.5625 L 15.953125 -10.640625 L 5.3125 -10.640625 L 5.3125 -42.5625 Z M 15.953125 0 L 15.953125 -10.640625 L 58.515625 -10.640625 L 58.515625 0 Z M 15.953125 -42.5625 L 15.953125 -53.203125 L 58.515625 -53.203125 L 58.515625 -42.5625 Z M 15.953125 -42.5625 "/></g></g></g><g fill="#ff0000" fill-opacity="1"><g transform="translate(496.566871, 408.799687)"><g><path d="M 5.3125 0 L 5.3125 -42.5625 L 15.953125 -42.5625 L 15.953125 -21.28125 L 47.875 -21.28125 L 47.875 -42.5625 L 58.515625 -42.5625 L 58.515625 0 L 47.875 0 L 47.875 -10.640625 L 15.953125 -10.640625 L 15.953125 0 Z M 15.953125 -42.5625 L 15.953125 -53.203125 L 47.875 -53.203125 L 47.875 -42.5625 Z M 15.953125 -42.5625 "/></g></g></g><g fill="#ff0000" fill-opacity="1"><g transform="translate(560.403591, 408.799687)"><g><path d="M 26.59375 0 L 26.59375 -42.5625 L 5.3125 -42.5625 L 5.3125 -53.203125 L 58.515625 -53.203125 L 58.515625 -42.5625 L 37.234375 -42.5625 L 37.234375 0 Z M 26.59375 0 "/></g></g></g><g fill="#ff0000" fill-opacity="1"><g transform="translate(624.240311, 408.799687)"><g><path d="M 5.3125 0 L 5.3125 -53.203125 L 15.953125 -53.203125 L 15.953125 -31.921875 L 47.875 -31.921875 L 47.875 -53.203125 L 58.515625 -53.203125 L 58.515625 0 L 47.875 0 L 47.875 -21.28125 L 15.953125 -21.28125 L 15.953125 0 Z M 5.3125 0 "/></g></g></g><g fill="#ff0000" fill-opacity="1"><g transform="translate(688.077031, 408.799687)"><g><path d="M 5.3125 0 L 5.3125 -53.203125 L 58.515625 -53.203125 L 58.515625 -42.5625 L 15.953125 -42.5625 L 15.953125 -31.921875 L 47.875 -31.921875 L 47.875 -21.28125 L 15.953125 -21.28125 L 15.953125 -10.640625 L 58.515625 -10.640625 L 58.515625 0 Z M 5.3125 0 "/></g></g></g><g fill="#ff0000" fill-opacity="1"><g transform="translate(751.913751, 408.799687)"><g><path d="M 5.3125 0 L 5.3125 -53.203125 L 47.875 -53.203125 L 47.875 -42.5625 L 15.953125 -42.5625 L 15.953125 -10.640625 L 47.875 -10.640625 L 47.875 0 Z M 47.875 -10.640625 L 47.875 -42.5625 L 58.515625 -42.5625 L 58.515625 -10.640625 Z M 47.875 -10.640625 "/></g></g></g><g fill="#ff0000" fill-opacity="1"><g transform="translate(815.750471, 408.799687)"><g><path d="M 5.3125 0 L 5.3125 -53.203125 L 47.875 -53.203125 L 47.875 -42.5625 L 15.953125 -42.5625 L 15.953125 -21.28125 L 47.875 -21.28125 L 47.875 -10.640625 L 15.953125 -10.640625 L 15.953125 0 Z M 47.875 0 L 47.875 -10.640625 L 58.515625 -10.640625 L 58.515625 0 Z M 47.875 -21.28125 L 47.875 -42.5625 L 58.515625 -42.5625 L 58.515625 -21.28125 Z M 47.875 -21.28125 "/></g></g></g><g fill="#ff0000" fill-opacity="1"><g transform="translate(879.587214, 408.799687)"><g><path d="M 5.3125 0 L 5.3125 -42.5625 L 15.953125 -42.5625 L 15.953125 -21.28125 L 47.875 -21.28125 L 47.875 -42.5625 L 58.515625 -42.5625 L 58.515625 0 L 47.875 0 L 47.875 -10.640625 L 15.953125 -10.640625 L 15.953125 0 Z M 15.953125 -42.5625 L 15.953125 -53.203125 L 47.875 -53.203125 L 47.875 -42.5625 Z M 15.953125 -42.5625 "/></g></g></g><g fill="#ff0000" fill-opacity="1"><g transform="translate(943.423912, 408.799687)"><g><path d="M 15.953125 0 L 15.953125 -10.640625 L 58.515625 -10.640625 L 58.515625 0 Z M 5.3125 -10.640625 L 5.3125 -53.203125 L 15.953125 -53.203125 L 15.953125 -10.640625 Z M 5.3125 -10.640625 "/></g></g></g><g fill="#ffd5d5" fill-opacity="1"><g transform="translate(592.31608, 481.549683)"><g><path d="M 47.875 0 L 47.875 -31.921875 L 37.234375 -31.921875 L 37.234375 -42.5625 L 47.875 -42.5625 L 47.875 -53.203125 L 58.515625 -53.203125 L 58.515625 0 Z M 5.3125 0 L 5.3125 -53.203125 L 15.953125 -53.203125 L 15.953125 -42.5625 L 26.59375 -42.5625 L 26.59375 -31.921875 L 15.953125 -31.921875 L 15.953125 0 Z M 26.59375 -21.28125 L 26.59375 -31.921875 L 37.234375 -31.921875 L 37.234375 -21.28125 Z M 26.59375 -21.28125 "/></g></g></g><g fill="#ffd5d5" fill-opacity="1"><g transform="translate(656.1528, 481.549683)"><g><path d="M 5.3125 0 L 5.3125 -42.5625 L 15.953125 -42.5625 L 15.953125 -21.28125 L 47.875 -21.28125 L 47.875 -42.5625 L 58.515625 -42.5625 L 58.515625 0 L 47.875 0 L 47.875 -10.640625 L 15.953125 -10.640625 L 15.953125 0 Z M 15.953125 -42.5625 L 15.953125 -53.203125 L 47.875 -53.203125 L 47.875 -42.5625 Z M 15.953125 -42.5625 "/></g></g></g><g fill="#ffd5d5" fill-opacity="1"><g transform="translate(719.98952, 481.549683)"><g><path d="M 37.234375 -31.921875 L 37.234375 -21.28125 L 26.59375 -21.28125 L 26.59375 -31.921875 Z M 5.3125 0 L 5.3125 -10.640625 L 15.953125 -10.640625 L 15.953125 -21.28125 L 26.59375 -21.28125 L 26.59375 -10.640625 L 58.515625 -10.640625 L 58.515625 0 Z M 5.3125 -42.5625 L 5.3125 -53.203125 L 58.515625 -53.203125 L 58.515625 -42.5625 L 47.875 -42.5625 L 47.875 -31.921875 L 37.234375 -31.921875 L 37.234375 -42.5625 Z M 5.3125 -42.5625 "/></g></g></g><g fill="#ffd5d5" fill-opacity="1"><g transform="translate(783.82624, 481.549683)"><g><path d="M 5.3125 0 L 5.3125 -53.203125 L 58.515625 -53.203125 L 58.515625 -42.5625 L 15.953125 -42.5625 L 15.953125 -31.921875 L 47.875 -31.921875 L 47.875 -21.28125 L 15.953125 -21.28125 L 15.953125 -10.640625 L 58.515625 -10.640625 L 58.515625 0 Z M 5.3125 0 "/></g></g></g></svg>