<svg xmlns="http://www.w3.org/2000/svg" xmlns:xlink="http://www.w3.org/1999/xlink" width="1920" zoomAndPan="magnify" viewBox="0 0 1440 809.999993" height="1080" preserveAspectRatio="xMidYMid meet" version="1.0"><defs><filter x="0%" y="0%" width="100%" height="100%" id="a9173db058"><feColorMatrix values="0 0 0 0 1 0 0 0 0 1 0 0 0 0 1 0 0 0 1 0" color-interpolation-filters="sRGB"/></filter><mask id="a1a217205f"><g filter="url(#a9173db058)"><rect x="-144" width="1728" fill="#000000" y="-80.999999" height="971.999992" fill-opacity="0.18"/></g></mask><clipPath id="beaee68b08"><path d="M 0 0 L 1440 0 L 1440 810 L 0 810 Z M 0 0 " clip-rule="nonzero"/></clipPath><clipPath id="f9b967049e"><rect x="0" width="1440" y="0" height="810"/></clipPath></defs><g mask="url(#a1a217205f)"><g transform="matrix(1, 0, 0, 1, 0, 0.000000000000039746)"><g clip-path="url(#f9b967049e)"><g clip-path="url(#beaee68b08)"><path fill="#545454" d="M 1457.605469 1388.707031 C 1455.183594 1388.707031 1453.730469 1386.769531 1453.730469 1384.832031 L 1453.730469 807.410156 L 1268.199219 807.410156 L 1268.199219 997.300781 C 1268.199219 999.722656 1266.261719 1001.175781 1264.324219 1001.175781 L 1171.316406 1001.175781 L 1171.316406 1094.183594 C 1171.316406 1096.605469 1169.378906 1098.058594 1167.441406 1098.058594 L 880.183594 1098.058594 L 880.183594 1191.066406 C 880.183594 1193.488281 878.246094 1194.941406 876.308594 1194.941406 L 783.300781 1194.941406 L 783.300781 1287.949219 C 783.300781 1290.371094 781.363281 1291.824219 779.425781 1291.824219 C 777.484375 1291.824219 775.546875 1289.886719 775.546875 1287.949219 L 775.546875 997.300781 C 775.546875 994.878906 777.484375 993.425781 779.425781 993.425781 L 872.429688 993.425781 L 872.429688 900.417969 C 872.429688 897.996094 874.371094 896.542969 876.308594 896.542969 L 1066.199219 896.542969 L 1066.199219 609.765625 C 1066.199219 607.34375 1068.136719 605.40625 1070.074219 605.40625 L 1163.082031 605.40625 L 1163.082031 322.992188 L 1070.074219 322.992188 C 1067.652344 322.992188 1066.199219 321.054688 1066.199219 318.632812 C 1066.199219 316.210938 1068.136719 314.273438 1070.074219 314.273438 L 1259.964844 314.273438 L 1259.964844 128.742188 L 880.183594 128.742188 L 880.183594 222.234375 C 880.183594 224.65625 878.246094 226.59375 876.308594 226.59375 L 783.300781 226.59375 L 783.300781 319.117188 C 783.300781 321.539062 781.363281 323.476562 779.425781 323.476562 L 686.902344 323.476562 L 686.902344 509.007812 L 876.308594 509.007812 C 878.730469 509.007812 880.183594 510.945312 880.183594 513.367188 L 880.183594 707.132812 C 880.183594 709.558594 878.246094 711.011719 876.308594 711.011719 L 779.425781 711.011719 C 777 711.011719 775.546875 709.070312 775.546875 707.132812 L 775.546875 610.25 C 775.546875 607.828125 777.484375 605.890625 779.425781 605.890625 C 781.363281 605.890625 783.300781 607.828125 783.300781 610.25 L 783.300781 703.257812 L 871.945312 703.257812 L 871.945312 517.726562 L 590.019531 517.726562 L 590.019531 609.765625 C 590.019531 612.1875 588.078125 614.128906 585.65625 614.128906 L 488.773438 614.128906 C 486.351562 614.128906 484.414062 612.1875 484.414062 609.765625 C 484.414062 607.34375 486.351562 605.40625 488.773438 605.40625 L 581.296875 605.40625 L 581.296875 512.882812 C 581.296875 510.460938 583.234375 508.523438 585.65625 508.523438 L 678.179688 508.523438 L 678.179688 322.992188 L 585.65625 322.992188 C 583.234375 322.992188 581.296875 321.054688 581.296875 318.632812 C 581.296875 316.210938 583.234375 314.273438 585.65625 314.273438 L 678.179688 314.273438 L 678.179688 128.742188 L 488.773438 128.742188 C 486.351562 128.742188 484.414062 126.804688 484.414062 124.382812 L 484.414062 31.859375 L 298.882812 31.859375 L 298.882812 222.234375 C 298.882812 224.65625 296.945312 226.59375 294.523438 226.59375 C 292.101562 226.59375 290.164062 224.65625 290.164062 222.234375 L 290.164062 28.46875 C 290.164062 26.046875 292.101562 24.109375 294.523438 24.109375 L 488.289062 24.109375 C 490.710938 24.109375 492.648438 26.046875 492.648438 28.46875 L 492.648438 120.992188 L 682.539062 120.992188 C 684.964844 120.992188 686.902344 122.929688 686.902344 125.351562 L 686.902344 314.757812 L 775.546875 314.757812 L 775.546875 222.234375 C 775.546875 219.8125 777.484375 217.875 779.425781 217.875 L 872.429688 217.875 L 872.429688 125.351562 C 872.429688 122.929688 874.371094 120.992188 876.308594 120.992188 L 1163.082031 120.992188 L 1163.082031 28.46875 C 1163.082031 26.046875 1165.019531 24.109375 1166.957031 24.109375 L 1263.839844 24.109375 C 1266.261719 24.109375 1267.714844 26.046875 1267.714844 28.46875 C 1267.714844 30.890625 1265.777344 32.828125 1263.839844 32.828125 L 1170.832031 32.828125 L 1170.832031 121.476562 L 1263.839844 121.476562 C 1266.261719 121.476562 1267.714844 123.414062 1267.714844 125.835938 L 1267.714844 218.359375 L 1360.722656 218.359375 C 1363.144531 218.359375 1364.597656 220.296875 1364.597656 222.71875 C 1364.597656 225.140625 1362.660156 227.078125 1360.722656 227.078125 L 1267.714844 227.078125 L 1267.714844 509.492188 L 1360.722656 509.492188 C 1363.144531 509.492188 1364.597656 511.429688 1364.597656 513.851562 C 1364.597656 516.273438 1362.660156 518.210938 1360.722656 518.210938 L 1267.714844 518.210938 L 1267.714844 703.742188 L 1360.722656 703.742188 C 1363.144531 703.742188 1364.597656 705.679688 1364.597656 707.617188 C 1364.597656 709.554688 1362.660156 711.492188 1360.722656 711.492188 L 1170.832031 711.492188 L 1170.832031 803.535156 C 1170.832031 805.957031 1168.894531 807.410156 1166.957031 807.410156 C 1165.019531 807.410156 1163.082031 805.472656 1163.082031 803.535156 L 1163.082031 706.648438 C 1163.082031 704.226562 1165.019531 702.773438 1166.957031 702.773438 L 1259.964844 702.773438 L 1259.964844 323.476562 L 1171.316406 323.476562 L 1171.316406 609.765625 C 1171.316406 612.1875 1169.378906 614.128906 1167.441406 614.128906 L 1074.433594 614.128906 L 1074.433594 900.417969 C 1074.433594 902.839844 1072.496094 904.292969 1070.558594 904.292969 L 977.066406 904.292969 L 977.066406 997.300781 C 977.066406 999.722656 975.128906 1001.175781 973.191406 1001.175781 C 971.253906 1001.175781 969.316406 999.238281 969.316406 997.300781 L 969.316406 904.292969 L 880.183594 904.292969 L 880.183594 997.300781 C 880.183594 999.722656 878.246094 1001.175781 876.308594 1001.175781 L 783.300781 1001.175781 L 783.300781 1186.707031 L 871.945312 1186.707031 L 871.945312 1094.183594 C 871.945312 1091.761719 873.886719 1090.308594 875.824219 1090.308594 L 1162.597656 1090.308594 L 1162.597656 1001.660156 L 1070.074219 1001.660156 C 1067.652344 1001.660156 1066.199219 999.722656 1066.199219 997.785156 C 1066.199219 995.847656 1068.136719 993.910156 1070.074219 993.910156 L 1259.964844 993.910156 L 1259.964844 905.261719 L 1166.957031 905.261719 C 1164.535156 905.261719 1163.082031 903.324219 1163.082031 901.386719 C 1163.082031 899.449219 1165.019531 897.511719 1166.957031 897.511719 L 1259.964844 897.511719 L 1259.964844 803.535156 C 1259.964844 801.109375 1261.902344 799.65625 1263.839844 799.65625 L 1453.730469 799.65625 L 1453.730469 614.128906 L 1360.722656 614.128906 C 1358.300781 614.128906 1356.847656 612.191406 1356.847656 609.765625 C 1356.847656 607.34375 1358.785156 605.40625 1360.722656 605.40625 L 1453.730469 605.40625 L 1453.730469 322.992188 L 1365.082031 322.992188 L 1365.082031 416 C 1365.082031 418.421875 1363.144531 420.359375 1361.207031 420.359375 C 1359.269531 420.359375 1357.332031 418.421875 1357.332031 416 L 1357.332031 319.117188 C 1357.332031 316.695312 1359.269531 314.757812 1361.207031 314.757812 L 1454.214844 314.757812 L 1454.214844 -64.539062 L 1365.566406 -64.539062 L 1365.566406 125.351562 C 1365.566406 127.773438 1363.628906 129.710938 1361.691406 129.710938 C 1359.753906 129.710938 1357.816406 127.773438 1357.816406 125.351562 L 1357.816406 -64.054688 L 590.019531 -64.054688 L 590.019531 24.59375 L 1070.074219 24.59375 C 1072.496094 24.59375 1073.949219 26.53125 1073.949219 28.953125 C 1073.949219 31.375 1072.011719 33.3125 1070.074219 33.3125 L 783.300781 33.3125 L 783.300781 125.351562 C 783.300781 127.773438 781.363281 129.710938 779.425781 129.710938 C 777.484375 129.710938 775.546875 127.773438 775.546875 125.351562 L 775.546875 32.828125 L 585.65625 32.828125 C 583.234375 32.828125 581.296875 30.890625 581.296875 28.46875 L 581.296875 -64.054688 L 101.242188 -64.054688 C 98.820312 -64.054688 96.882812 -65.992188 96.882812 -68.414062 C 96.882812 -70.835938 98.820312 -72.773438 101.242188 -72.773438 L 1457.605469 -72.773438 C 1460.027344 -72.773438 1461.480469 -70.835938 1461.480469 -68.414062 L 1461.480469 1384.832031 C 1461.480469 1387.253906 1460.027344 1388.707031 1457.605469 1388.707031 Z M 1360.722656 1388.707031 L 4.359375 1388.707031 C 1.9375 1388.707031 0 1386.769531 0 1384.832031 L 0 -68.414062 C 0 -70.835938 1.9375 -72.773438 4.359375 -72.773438 C 6.78125 -72.773438 8.71875 -70.835938 8.71875 -68.414062 L 8.71875 120.992188 L 101.242188 120.992188 C 103.664062 120.992188 105.601562 122.929688 105.601562 125.351562 L 105.601562 416 C 105.601562 418.421875 103.664062 420.359375 101.242188 420.359375 C 98.820312 420.359375 96.882812 418.421875 96.882812 416 L 96.882812 129.710938 L 8.234375 129.710938 L 8.234375 605.890625 L 101.242188 605.890625 C 103.664062 605.890625 105.601562 607.828125 105.601562 610.25 L 105.601562 707.136719 C 105.601562 709.558594 103.664062 711.011719 101.242188 711.011719 C 98.820312 711.011719 96.882812 709.074219 96.882812 707.136719 L 96.882812 614.613281 L 8.234375 614.613281 L 8.234375 897.027344 L 391.890625 897.027344 C 394.3125 897.027344 396.25 898.964844 396.25 900.902344 C 396.25 902.839844 394.3125 904.777344 391.890625 904.777344 L 299.367188 904.777344 L 299.367188 1090.308594 L 585.65625 1090.308594 C 588.078125 1090.308594 590.019531 1092.246094 590.019531 1094.183594 L 590.019531 1191.066406 C 590.019531 1193.488281 588.078125 1194.941406 585.65625 1194.941406 L 493.132812 1194.941406 L 493.132812 1287.949219 C 493.132812 1290.371094 491.195312 1291.824219 488.773438 1291.824219 C 486.351562 1291.824219 484.414062 1289.886719 484.414062 1287.949219 L 484.414062 1194.941406 L 391.890625 1194.941406 C 389.46875 1194.941406 387.53125 1193.003906 387.53125 1191.066406 C 387.53125 1189.128906 389.46875 1187.191406 391.890625 1187.191406 L 581.296875 1187.191406 L 581.296875 1098.542969 L 105.117188 1098.542969 L 105.117188 1191.066406 C 105.117188 1193.488281 103.179688 1194.941406 100.757812 1194.941406 C 98.335938 1194.941406 96.398438 1193.003906 96.398438 1191.066406 L 96.398438 1094.183594 C 96.398438 1091.761719 98.335938 1090.308594 100.757812 1090.308594 L 290.164062 1090.308594 L 290.164062 904.777344 L 7.75 904.777344 L 7.75 993.425781 L 198.125 993.425781 C 200.546875 993.425781 202.484375 995.363281 202.484375 997.300781 C 202.484375 999.238281 200.546875 1001.175781 198.125 1001.175781 L 8.71875 1001.175781 L 8.71875 1380.472656 L 388.015625 1380.472656 L 388.015625 1291.824219 L 295.007812 1291.824219 C 292.585938 1291.824219 290.648438 1289.886719 290.648438 1287.949219 L 290.648438 1194.941406 L 202 1194.941406 L 202 1287.949219 C 202 1290.371094 200.0625 1291.824219 197.640625 1291.824219 L 100.757812 1291.824219 C 98.335938 1291.824219 96.398438 1289.886719 96.398438 1287.949219 C 96.398438 1286.011719 98.335938 1284.074219 100.757812 1284.074219 L 193.28125 1284.074219 L 193.28125 1191.066406 C 193.28125 1188.644531 195.21875 1187.191406 197.640625 1187.191406 L 294.523438 1187.191406 C 296.945312 1187.191406 298.882812 1189.128906 298.882812 1191.066406 L 298.882812 1284.074219 L 391.890625 1284.074219 C 394.3125 1284.074219 396.25 1286.011719 396.25 1287.949219 L 396.25 1380.957031 L 678.664062 1380.957031 L 678.664062 1292.308594 L 585.65625 1292.308594 C 583.234375 1292.308594 581.296875 1290.371094 581.296875 1288.433594 C 581.296875 1286.496094 583.234375 1284.558594 585.65625 1284.558594 L 678.179688 1284.558594 L 678.179688 900.417969 C 678.179688 897.996094 680.117188 896.542969 682.539062 896.542969 L 775.546875 896.542969 L 775.546875 807.894531 L 682.539062 807.894531 C 680.117188 807.894531 678.179688 805.957031 678.179688 804.019531 L 678.179688 711.011719 L 295.007812 711.011719 C 292.585938 711.011719 290.648438 709.074219 290.648438 707.136719 L 290.648438 513.367188 C 290.648438 510.945312 292.585938 509.007812 295.007812 509.007812 C 297.429688 509.007812 299.367188 510.945312 299.367188 513.367188 L 299.367188 703.257812 L 388.015625 703.257812 L 388.015625 512.882812 C 388.015625 510.460938 389.953125 508.523438 392.375 508.523438 L 484.898438 508.523438 L 484.898438 226.109375 L 396.25 226.109375 L 396.25 319.117188 C 396.25 321.539062 394.3125 323.476562 391.890625 323.476562 L 202.484375 323.476562 L 202.484375 412.125 L 391.890625 412.125 C 394.3125 412.125 396.25 414.0625 396.25 416.484375 C 396.25 418.90625 394.3125 420.84375 391.890625 420.84375 L 202.484375 420.84375 L 202.484375 800.140625 L 488.773438 800.140625 C 491.195312 800.140625 493.132812 802.078125 493.132812 804.019531 L 493.132812 993.910156 L 581.296875 993.910156 L 581.296875 803.535156 C 581.296875 801.109375 583.234375 799.65625 585.65625 799.65625 C 588.078125 799.65625 590.019531 801.597656 590.019531 803.535156 L 590.019531 997.300781 C 590.019531 999.722656 588.078125 1001.175781 585.65625 1001.175781 L 391.890625 1001.175781 C 389.46875 1001.175781 387.53125 999.238281 387.53125 997.300781 C 387.53125 995.363281 389.46875 993.425781 391.890625 993.425781 L 484.414062 993.425781 L 484.414062 807.894531 L 101.242188 807.894531 C 98.820312 807.894531 96.882812 805.957031 96.882812 804.019531 C 96.882812 802.082031 98.820312 800.144531 101.242188 800.144531 L 193.765625 800.144531 L 193.765625 517.730469 L 101.242188 517.730469 C 98.820312 517.730469 96.882812 515.792969 96.882812 513.367188 C 96.882812 510.945312 98.820312 509.007812 101.242188 509.007812 L 193.765625 509.007812 L 193.765625 32.828125 L 101.242188 32.828125 C 98.820312 32.828125 96.882812 30.890625 96.882812 28.46875 C 96.882812 26.046875 98.820312 24.109375 101.242188 24.109375 L 198.125 24.109375 C 200.546875 24.109375 202.484375 26.046875 202.484375 28.46875 L 202.484375 314.757812 L 388.015625 314.757812 L 388.015625 125.351562 C 388.015625 122.929688 389.953125 120.992188 392.375 120.992188 C 394.796875 120.992188 396.734375 122.929688 396.734375 125.351562 L 396.734375 217.875 L 585.65625 217.875 C 588.078125 217.875 590.019531 219.8125 590.019531 222.234375 C 590.019531 224.65625 588.078125 226.59375 585.65625 226.59375 L 493.132812 226.59375 L 493.132812 412.125 L 585.65625 412.125 C 588.078125 412.125 590.019531 414.0625 590.019531 416.484375 C 590.019531 418.90625 588.078125 420.84375 585.65625 420.84375 L 493.132812 420.84375 L 493.132812 512.882812 C 493.132812 515.304688 491.195312 517.242188 488.773438 517.242188 L 396.25 517.242188 L 396.25 702.773438 L 678.664062 702.773438 L 678.664062 609.765625 C 678.664062 607.34375 680.601562 605.40625 683.023438 605.40625 C 685.449219 605.40625 687.386719 607.34375 687.386719 609.765625 L 687.386719 799.65625 L 969.800781 799.65625 L 969.800781 512.882812 C 969.800781 510.460938 971.738281 508.523438 973.675781 508.523438 L 1066.683594 508.523438 L 1066.683594 419.875 L 973.191406 419.875 C 970.769531 419.875 969.316406 417.9375 969.316406 415.515625 L 969.316406 322.992188 L 880.183594 322.992188 L 880.183594 416 C 880.183594 418.421875 878.246094 420.359375 876.308594 420.359375 L 779.425781 420.359375 C 777 420.359375 775.546875 418.421875 775.546875 416 C 775.546875 413.578125 777.484375 411.640625 779.425781 411.640625 L 872.429688 411.640625 L 872.429688 319.117188 C 872.429688 316.695312 874.371094 314.757812 876.308594 314.757812 L 969.316406 314.757812 L 969.316406 222.234375 C 969.316406 219.8125 971.253906 217.875 973.191406 217.875 L 1166.957031 217.875 C 1169.378906 217.875 1170.832031 219.8125 1170.832031 222.234375 C 1170.832031 224.65625 1168.894531 226.59375 1166.957031 226.59375 L 977.066406 226.59375 L 977.066406 412.125 L 1070.074219 412.125 C 1072.496094 412.125 1073.949219 414.0625 1073.949219 416.484375 L 1073.949219 513.367188 C 1073.949219 515.789062 1072.011719 517.726562 1070.074219 517.726562 L 977.066406 517.726562 L 977.066406 803.535156 C 977.066406 805.957031 975.128906 807.410156 973.191406 807.410156 L 783.300781 807.410156 L 783.300781 900.417969 C 783.300781 902.839844 781.363281 904.292969 779.425781 904.292969 L 686.902344 904.292969 L 686.902344 1380.472656 L 1163.082031 1380.472656 L 1163.082031 1287.949219 C 1163.082031 1285.527344 1165.019531 1284.074219 1166.957031 1284.074219 L 1263.839844 1284.074219 C 1266.261719 1284.074219 1267.714844 1286.011719 1267.714844 1287.949219 C 1267.714844 1289.886719 1265.777344 1291.824219 1263.839844 1291.824219 L 1170.832031 1291.824219 L 1170.832031 1380.472656 L 1356.363281 1380.472656 L 1356.363281 1098.058594 L 1267.714844 1098.058594 L 1267.714844 1191.066406 C 1267.714844 1193.488281 1265.777344 1194.941406 1263.839844 1194.941406 L 977.066406 1194.941406 L 977.066406 1283.589844 L 1070.074219 1283.589844 C 1072.496094 1283.589844 1073.949219 1285.527344 1073.949219 1287.464844 C 1073.949219 1289.402344 1072.011719 1291.339844 1070.074219 1291.339844 L 876.308594 1291.339844 C 873.886719 1291.339844 872.429688 1289.402344 872.429688 1287.464844 C 872.429688 1285.527344 874.371094 1283.589844 876.308594 1283.589844 L 969.316406 1283.589844 L 969.316406 1191.066406 C 969.316406 1188.644531 971.253906 1187.191406 973.191406 1187.191406 L 1259.964844 1187.191406 L 1259.964844 1094.183594 C 1259.964844 1091.761719 1261.902344 1090.308594 1263.839844 1090.308594 L 1356.847656 1090.308594 L 1356.847656 900.417969 C 1356.847656 897.996094 1358.785156 896.542969 1360.722656 896.542969 C 1362.660156 896.542969 1364.597656 898.480469 1364.597656 900.417969 L 1364.597656 1384.832031 C 1364.597656 1387.253906 1363.144531 1388.707031 1360.722656 1388.707031 Z M 1360.722656 1388.707031 " fill-opacity="1" fill-rule="nonzero"/></g></g></g></g></svg>